/* XPM */
static char *exit_close[] = {
/* columns rows colors chars-per-pixel */
"32 32 177 2 ",
"   c #0C1719",
".  c #0E1819",
"X  c #111A1A",
"o  c #191E1D",
"O  c #1F221E",
"+  c #3F281F",
"@  c #191E23",
"#  c #1C2024",
"$  c #252327",
"%  c #2D2623",
"&  c #2B2825",
"*  c #302722",
"=  c #332924",
"-  c #3E2B22",
";  c #3C2E2F",
":  c #3C352A",
">  c #292631",
",  c #3A2D30",
"<  c #342C3A",
"1  c #41291F",
"2  c #422C21",
"3  c #402F2E",
"4  c #47312A",
"5  c #49312B",
"6  c #4A3428",
"7  c #4B3E2A",
"8  c #5B3629",
"9  c #433C32",
"0  c #493935",
"q  c #6C3C27",
"w  c #673F36",
"e  c #4E402C",
"r  c #5E4231",
"t  c #604332",
"y  c #644931",
"u  c #6C423D",
"i  c #744436",
"p  c #784637",
"a  c #7B4739",
"s  c #704E3C",
"d  c #7D4839",
"f  c #785736",
"g  c #3F3045",
"h  c #483547",
"j  c #4B364A",
"k  c #563B46",
"l  c #5C3E4D",
"z  c #4E3750",
"x  c #4F3851",
"c  c #523A52",
"v  c #5A3E51",
"b  c #603E4D",
"n  c #5D424D",
"m  c #5A4054",
"M  c #62414F",
"N  c #6C444C",
"B  c #684C4F",
"V  c #7B4946",
"C  c #71454B",
"Z  c #7C4A49",
"A  c #705945",
"S  c #654451",
"D  c #6E4E5A",
"F  c #784E51",
"G  c #736049",
"H  c #7C5F61",
"J  c #7E6061",
"K  c #834B38",
"L  c #8E4F3E",
"P  c #944E33",
"I  c #944F38",
"U  c #8B523D",
"Y  c #95513F",
"T  c #9A533E",
"R  c #A55334",
"E  c #A5563E",
"W  c #AA573D",
"Q  c #A7583F",
"!  c #AA593F",
"~  c #B25631",
"^  c #BC5B34",
"/  c #B25A3D",
"(  c #BA5D3D",
")  c #C35C34",
"_  c #C7613B",
"`  c #CD6239",
"'  c #D5653B",
"]  c #DA663A",
"[  c #DD693C",
"{  c #E86837",
"}  c #E56739",
"|  c #E6693A",
" . c #EB6B3A",
".. c #F06E3B",
"X. c #E9753F",
"o. c #854C44",
"O. c #894E43",
"+. c #814C48",
"@. c #8D5044",
"#. c #8A5248",
"$. c #965340",
"%. c #995441",
"&. c #9D5A43",
"*. c #925749",
"=. c #A15641",
"-. c #A15C46",
";. c #AC5D43",
":. c #B55C41",
">. c #9A6841",
",. c #88625D",
"<. c #996052",
"1. c #9C7257",
"2. c #A46247",
"3. c #AC6546",
"4. c #A7654D",
"5. c #AD694E",
"6. c #B57C49",
"7. c #A36B55",
"8. c #AB6B56",
"9. c #AF7053",
"0. c #B37153",
"q. c #BB7657",
"w. c #BA7957",
"e. c #BC7758",
"r. c #BD7959",
"t. c #946C64",
"y. c #9D766A",
"u. c #AE7B6B",
"i. c #D97141",
"p. c #C07B5A",
"a. c #D47654",
"s. c #E96F41",
"d. c #EB7242",
"f. c #EF7B42",
"g. c #F07C43",
"h. c #EA7C52",
"j. c #B98665",
"k. c #BB8A66",
"l. c #BF996D",
"z. c #C68B4D",
"x. c #CB8D4F",
"c. c #D28A4C",
"v. c #D48852",
"b. c #E68A4D",
"n. c #F8934F",
"m. c #E58E51",
"M. c #F18F5C",
"N. c #E19754",
"B. c #FFA156",
"V. c #FFA75E",
"C. c #CB8B64",
"Z. c #CB936C",
"A. c #D19067",
"S. c #D9956A",
"D. c #CF9C71",
"F. c #D89A76",
"G. c #DAA57A",
"H. c #D9AA7E",
"J. c #FFB36F",
"K. c #E9A67A",
"L. c #E6AE7B",
"P. c #F3AB7B",
"I. c #ECB37D",
"U. c #F6B17F",
"Y. c #D49B86",
"T. c #D7AA80",
"R. c #DAAC80",
"E. c #E9A184",
"W. c #E5B483",
"Q. c #F3BA82",
"!. c #FCBA84",
"~. c #F2B48E",
"^. c #F7C189",
"/. c #FEC68B",
"(. c #FFCD8E",
"). c #FFCF90",
"_. c #FFD191",
/* pixels */
"A.C.w.w.C.C.0.9.8.0.9.7.,.,.7.9.9.9.9.9.8.0.0.7.,.t.C.C.A.A.A.A.",
"q.8.*.@.4.5.&.Y Y Y T o.b l o.%.$.$.Y $.Y Y Y K l S <.0.q.e.e.e.",
"r.7.F N @.-.%.Y T %.%.o.M b o.%.=.=.$.$.%.T %.o.l S #.4.q.r.e.e.",
"p.8.F N V o.o.o.d i p u 0 k w d p w K w i a o.+.N N o.&.5.0.e.r.",
"r.0.*.V N M S k : * = * $ $ & + = = = = = 3 k C +.O.$.$.&.4.0.r.",
"0.5.-.O.C l j < # X X X X .   . . . . .   @ < h w d O.$.$.&.0.p.",
"-.&.&.$.@.u ; # o . X X O . . .   . . .   X @ $ % 5 a $.$.-.0.p.",
"$.$.Y %.%.i *   . X X     O : e 7 7 7 7 7 7 7 6 7 t &.3.&.&.5.0.",
"$.$.$.%.$.i %     . .     : >.x.z.z.z.z.z.z.z.z.z.x.N.v.3.%.&.&.",
"$.$.Y &.3.>.y 7 7 7 7 7 7 f c.B.B.B.B.B.B.B.B.V.J.J.V.m.3.Y $.$.",
"$.$.Y 3.v.N.c.z.z.z.z.z.z.x.f.g.g.g.g.g.g.g.X.M.~.~.M.[ ! $.$.$.",
"Y $.$.3.b.V.J.J.V.B.B.B.V.n.d.} | | |  .| } ] a.Y.Y.a.) E $.$.$.",
"$.$.$.! i.M.~.~.M.f.f.g.g.f. .|  .|  . . .[ ( ;.8.9.3.Q T $.$.$.",
"$.$.Y W ' h.E.E.h.{ {  . .|  .] ) ~ ~ ~ ~ R K i w w i p L $.$.%.",
"$.$.$.W ' d.h.h.s.{  . . . . .) q - 2 2 1 1 = & + % $ 4 a %.%.Y ",
"$.$.$.T R ~ ~ ~ ~ ~ ~ ~ ~ ~ ~ P 6 & * * & & & = 4 6 e r K $.%.$.",
"$.$.%.K 8 2 2 2 2 2 2 2 2 2 + 6 w i i u i i i U z.z.x.6.2.Y Y Y ",
"$.%.%.d 4 % % * = & & = - 2 + 8 I / / ! ! ! ! :.m.B.B.N.3.Y Y Y ",
"$.$.%.L d i i i p i i K T ~ ~ ^ ` ' ] ' ' ' ' [ X.X.b.[ 2.$.Y %.",
"Y %.Y %.%.%.%.%.&.T T ! ] .. .| ' ' ' ' ' ' | d.h.h. .' W $.%.Y ",
"$.$.$.Y %.%.%.%.T &.%.! ' .. .] ( =.Q Q Q ( ' h.E.E.h.` W Y Y Y ",
"$.%.%.L d i a a i i i I ` .. .[ ( ! ! ;.Q / _ a.Y.Y.a._ E Y Y %.",
"$.%.Y d 6 % = = * % O 8 ^ ....| [ ' ' ' ' _ / ;.7.7.3.E T T $.$.",
"%.%.@.u , @ X o * : 9 t P ~ ~ ~ ~ ~ ~ ) ] [ ( ! W ! ;.T @.O.@.%.",
"T @.C n j < # * s 7.j.1.r + 1 1 1 1 1 q )  .[ ] ] ] ] :.+.C O.%.",
"o.V n x c h > 0 7.S.P.Z.A 9 9 9 9 9 9 r P ~ ~ ~ ~ ~ ^ T b b Z O.",
"M n m m m x g B C.K.P.L.Z.k.k.k.k.k.k.1.w + 1 2 1 2 2 5 j v b M ",
"x x c x x m D t.F.U.U.U.U.U.Q.!.!.!.!.D.G 9 9 9 9 : $ > h c c c ",
"z c c z z D u.F.K.U./././././././././.Q.H.l.k.k.k.1.n g j c c z ",
"H J H J J y.G.Q.U.^./.(.(.(._.(.(.(.(._.).(.^.!.!.G.y.H H H J H ",
"T.T.T.R.T.R.^./././.(._._.(.(.(._.(.(._._.).(./.(.^.W.T.T.T.T.T.",
"Q.Q.I.I.Q.Q.I.I.L.L.L.L.H.H.L.L.L.L.L.L.L.L.L.L.R.R.Q.Q.Q.Q.Q.Q."
};
