/* XPM */
static char *player_front[] = {
/* columns rows colors chars-per-pixel */
"32 32 19 1 ",
"  c black",
". c #040404",
"X c #1E1E1E",
"o c #3F3013",
"O c gray21",
"+ c #46000A",
"@ c #770000",
"# c #4D4C4B",
"$ c #7D7B76",
"% c #D80000",
"& c #84482A",
"* c #AA5A33",
"= c #D97F40",
"- c #F6A954",
"; c #A29E96",
": c #BEBBB5",
"> c #F7D099",
", c gray91",
"< c None",
/* pixels */
"<<<<<<<<<<<<<<<<<<<<<<<<<<<<<<<<",
"<<<<<<<<<<<<<<<<<<<<<<<<<<<<<<<<",
"<<<<<<<<<<<<<<<<<<<<<<<<<<<<<<<<",
"<<<<<<<<<<<<<<<<<<<<<<<<<<<<<<<<",
"<<<<<<<<<<<<<<<  <<<<<<<<<<<<<<<",
"<<<<<<<<<<<<<< %% <<<<<<<<<<<<<<",
"<<<<<<<<<<<<< @%%@ <<<<<<<<<<<<<",
"<<<<<<<<<<<<< @@@@ <<<<<<<<<<<<<",
"<<<<<<<<<<<<< +@@+ <<<<<<<<<<<<<",
"<<<<<<<<<<<< XX++XX <<<<<<<<<<<<",
"<<<<<<<<<<< XO#$$#OX <<<<<<<<<<<",
"<<<<<<<<<< XO##;;##OX <<<<<<<<<<",
"<<<<<<<<<< $$O#$$#O$$ <<<<<<<<<<",
"<<<<<<<<<< #$;;::;;$# <<<<<<<<<<",
"<<<<<<<<<< X;;::::;;X <<<<<<<<<<",
"<<<<<<<<<<< X,.>>.,X <<<<<<<<<<<",
"<<<<<<<<<<< #,.>>.,# <<<<<<<<<<<",
"<<<<<<<<<<<.O*----*O.<<<<<<<<<<<",
"<<<<<<<<<<.$$$&&&&$$$.<<<<<<<<<<",
"<<<<<<<<<.--.#$$$$#.--.<<<<<<<<<",
"<<<<<<<<<.-=.######.=-.<<<<<<<<<",
"<<<<<<<<<<...O####O...<<<<<<<<<<",
"<<<<<<<<<<<<.oo..oo.<<<<<<<<<<<<",
"<<<<<<<<<<<<<<<<<<<<<<<<<<<<<<<<",
"<<<<<<<<<<<<<<<<<<<<<<<<<<<<<<<<",
"<<<<<<<<<<<<<<<<<<<<<<<<<<<<<<<<",
"<<<<<<<<<<<<<<<<<<<<<<<<<<<<<<<<",
"<<<<<<<<<<<<<<<<<<<<<<<<<<<<<<<<",
"<<<<<<<<<<<<<<<<<<<<<<<<<<<<<<<<",
"<<<<<<<<<<<<<<<<<<<<<<<<<<<<<<<<",
"<<<<<<<<<<<<<<<<<<<<<<<<<<<<<<<<",
"<<<<<<<<<<<<<<<<<<<<<<<<<<<<<<<<"
};
