/* XPM */
static char *wall1[] = {
/* columns rows colors chars-per-pixel */
"32 32 78 1 ",
"  c #914E3E",
". c #855639",
"X c #895D3D",
"o c #93503F",
"O c #A25330",
"+ c #A35A36",
"@ c #B05731",
"# c #B05832",
"$ c #D56F3F",
"% c #D96E3D",
"& c #C7793B",
"* c #D87A35",
"= c #E56D3A",
"- c #E96E3A",
"; c #EC703B",
": c #975541",
"> c #985542",
", c #975843",
"< c #995943",
"1 c #9C6145",
"2 c #936E47",
"3 c #9D6549",
"4 c #9E6D4A",
"5 c #957047",
"6 c #96764C",
"7 c #9C754C",
"8 c #9A784B",
"9 c #A16145",
"0 c #AD6646",
"q c #AF6947",
"w c #A16E4C",
"e c #AD6E48",
"r c #B16F4A",
"t c #A77746",
"y c #A3754E",
"u c #AE734B",
"i c #BD7246",
"p c #B2734A",
"a c #B37A4E",
"s c #B87D4F",
"d c #A37455",
"f c #A97664",
"g c #AC776B",
"h c #AF7E6D",
"j c #C76E41",
"k c #CA6F42",
"l c #C47144",
"z c #C97042",
"x c #C2794C",
"c c #CF7F4B",
"v c #D67040",
"b c #D87140",
"n c #B98251",
"m c #AF846A",
"M c #B48C73",
"N c #B79276",
"B c #C7814E",
"V c #D0824D",
"C c #DF864C",
"Z c #D58951",
"A c #E0864C",
"S c #E58E4F",
"D c #E88E4F",
"F c #F5934F",
"G c #E88F50",
"H c #E59756",
"J c #E69856",
"K c #E89A56",
"L c #EB9D58",
"P c #F69551",
"I c #F99550",
"U c #F79C54",
"Y c #F99A53",
"T c #FAA056",
"R c #FDA659",
"E c #FEAA5B",
"W c #FFB15E",
"Q c None",
/* pixels */
"QQQQQQQQQQ::  oo: : : QQQQQQQQQQ",
"QQQQQQQQQQ00r0qq0qqqq0QQQQQQQQQQ",
"QQQQQQo :9ZKHHHJHHHHJZ0  :QQQQQQ",
"QQQQQQ00qxLERRRRRRREELxq0qQQQQQQ",
"QQQQ:0ZHKLEEYPPFIIPYEELHHZ0oQQQQ",
"QQQQ 0HWWEEUPFPPPPPPUEEWWH0 QQQQ",
"QQQQ:0HWWRUPTRRRRRRTYYEWWH0 QQQQ",
"QQQQ0xLEETPYEERRRRERUPUEELx0QQQQ",
"QQo0ZLERUPUEEEYFFYEEEUPYEELZ0:QQ",
"QQ qHWWRPPREETYPPYUEERPFREWH0:QQ",
"QQ:0KWERFPREYPTRRTPUERPFRWWH0:QQ",
"QQ:rKWERFPRRUPTRRTPYERPFRWWHe,QQ",
" ,3sLWWRFPREETYFPYUEERPPRWWLs3,.",
"3<4nJEEEUPTREEYFFYEEETPYREEKnw<X",
"m4ysSYEERUYUEEERTEEEYPREEEYSsyy2",
"NyyuVSUEEEUPURRRRRRTPUREEUDVuyd7",
"N4yyaBDYEEEUPFPPFFPPTEEEYDxayyy8",
"Nyy44ucGURRRIPFPPPPYTERTDVu4wyy8",
"N4<<:1uBGIIYRRRRRRRUYIIDBu1,,1w7",
"M1::,14sVACGURRRREEUDAAVa41>o,35",
"mooo34yyasaBGIIIFIFDBaaayy43<o<X",
"g o9upyydy7aVCCCCCCVayyyyyyy3,>.",
"fowezzpyyy7yusspssaayyyyyyyyy3<.",
"d1el%%ipyyyyupupurruyyyypuuyuq0X",
"dpj%==%zpy7ulv$$$$$ju7ypzzupzzq5",
"yp$====$pyui%--====$luyp$$pp$$p6",
"7a$====$puz%========$lup$$ppvvp8",
"pl$=%$=$pp$====%%%==-vpp$%ii%%lt",
"v$=%ii%$ppv====%ii%=-$ppv=%%%=%&",
"==%kii%$ppv----bppv--vpp$======*",
"QQpik%=%QQQQ---bppb;QQQQ%-====QQ",
"QQ7p$--;QQQQO##+XX+OQQQQ--====QQ"
};
