/* XPM */
static char *enemy_back[] = {
/* columns rows colors chars-per-pixel */
"64 64 7 1 ",
"  c #141B1B",
". c #477238",
"X c #61683A",
"o c #61A53F",
"O c #8FD032",
"+ c #939446",
"@ c None",
/* pixels */
"@@@@@@@@@@@@@@@@@@@@@@@@@@@@@@@@@@@@@@@@@@@@@@@@@@@@@@@@@@@@@@@@",
"@@@@@@@@@@@@@@@@@@@@@@@@@@@@@@@@@@@@@@@@@@@@@@@@@@@@@@@@@@@@@@@@",
"@@@@@@@@@@@@@@@@@@@@@@@@@@@@@@@@@@@@@@@@@@@@@@@@@@@@@@@@@@@@@@@@",
"@@@@@@@@@@@@@@@@@@@@@@@@@@@@@@@@@@@@@@@@@@@@@@@@@@@@@@@@@@@@@@@@",
"@@@@@@@@@@@@@@@@                                @@@@@@@@@@@@@@@@",
"@@@@@@@@@@@@@@@@                                @@@@@@@@@@@@@@@@",
"@@@@@@@@@@@@@@@@                                @@@@@@@@@@@@@@@@",
"@@@@@@@@@@@@@@@@                                @@@@@@@@@@@@@@@@",
"@@@@@@@@@@@@    XXXX++++++++++++++++++++++++XXXX    @@@@@@@@@@@@",
"@@@@@@@@@@@@    XXXX++++++++++++++++++++++++XXXX    @@@@@@@@@@@@",
"@@@@@@@@@@@@    XXXX++++++++++++++++++++++++XXXX    @@@@@@@@@@@@",
"@@@@@@@@@@@@    XXXX++++++++++++++++++++++++XXXX    @@@@@@@@@@@@",
"@@@@@@@@    XXXXXXXXXXXX++++++++++++++++XXXXXXXXXXXX    @@@@@@@@",
"@@@@@@@@    XXXXXXXXXXXX++++++++++++++++XXXXXXXXXXXX    @@@@@@@@",
"@@@@@@@@    XXXXXXXXXXXX++++++++++++++++XXXXXXXXXXXX    @@@@@@@@",
"@@@@@@@@    XXXXXXXXXXXX++++++++++++++++XXXXXXXXXXXX    @@@@@@@@",
"@@@@@@@@    XXXXXXXXXXXXXXXXXXXXXXXXXXXXXXXXXXXXXXXX    @@@@@@@@",
"@@@@@@@@    XXXXXXXXXXXXXXXXXXXXXXXXXXXXXXXXXXXXXXXX    @@@@@@@@",
"@@@@@@@@    XXXXXXXXXXXXXXXXXXXXXXXXXXXXXXXXXXXXXXXX    @@@@@@@@",
"@@@@@@@@    XXXXXXXXXXXXXXXXXXXXXXXXXXXXXXXXXXXXXXXX    @@@@@@@@",
"@@@@@@@@    XXXXXXXXXXXXXXXXXXXXXXXXXXXXXXXXXXXXXXXX    @@@@@@@@",
"@@@@@@@@    XXXXXXXXXXXXXXXXXXXXXXXXXXXXXXXXXXXXXXXX    @@@@@@@@",
"@@@@@@@@    XXXXXXXXXXXXXXXXXXXXXXXXXXXXXXXXXXXXXXXX    @@@@@@@@",
"@@@@@@@@    XXXXXXXXXXXXXXXXXXXXXXXXXXXXXXXXXXXXXXXX    @@@@@@@@",
"@@@@@@@@    XXXXXXXXXXXXXXXXXXXXXXXXXXXXXXXXXXXXXXXX    @@@@@@@@",
"@@@@@@@@    XXXXXXXXXXXXXXXXXXXXXXXXXXXXXXXXXXXXXXXX    @@@@@@@@",
"@@@@@@@@    XXXXXXXXXXXXXXXXXXXXXXXXXXXXXXXXXXXXXXXX    @@@@@@@@",
"@@@@@@@@    XXXXXXXXXXXXXXXXXXXXXXXXXXXXXXXXXXXXXXXX    @@@@@@@@",
"@@@@    OOOOXXXXXXXXXXXXXXXXXXXXXXXXXXXXXXXXXXXXXXXXOOOO    @@@@",
"@@@@    OOOOXXXXXXXXXXXXXXXXXXXXXXXXXXXXXXXXXXXXXXXXOOOO    @@@@",
"@@@@    OOOOXXXXXXXXXXXXXXXXXXXXXXXXXXXXXXXXXXXXXXXXOOOO    @@@@",
"@@@@    OOOOXXXXXXXXXXXXXXXXXXXXXXXXXXXXXXXXXXXXXXXXOOOO    @@@@",
"@@@@    OOOOXXXXXXXXXXXXXXXXXXXXXXXXXXXXXXXXXXXXXXXXOOOO    @@@@",
"@@@@    OOOOXXXXXXXXXXXXXXXXXXXXXXXXXXXXXXXXXXXXXXXXOOOO    @@@@",
"@@@@    OOOOXXXXXXXXXXXXXXXXXXXXXXXXXXXXXXXXXXXXXXXXOOOO    @@@@",
"@@@@    OOOOXXXXXXXXXXXXXXXXXXXXXXXXXXXXXXXXXXXXXXXXOOOO    @@@@",
"@@@@@@@@    ....XXXXXXXXXXXXXXXXXXXXXXXXXXXXXXXX....    @@@@@@@@",
"@@@@@@@@    ....XXXXXXXXXXXXXXXXXXXXXXXXXXXXXXXX....    @@@@@@@@",
"@@@@@@@@    ....XXXXXXXXXXXXXXXXXXXXXXXXXXXXXXXX....    @@@@@@@@",
"@@@@@@@@    ....XXXXXXXXXXXXXXXXXXXXXXXXXXXXXXXX....    @@@@@@@@",
"@@@@@@@@@@@@    ................................    @@@@@@@@@@@@",
"@@@@@@@@@@@@    ................................    @@@@@@@@@@@@",
"@@@@@@@@@@@@    ................................    @@@@@@@@@@@@",
"@@@@@@@@@@@@    ................................    @@@@@@@@@@@@",
"@@@@@@@@    ....oooooooooooooooooooooooooooooooo....    @@@@@@@@",
"@@@@@@@@    ....oooooooooooooooooooooooooooooooo....    @@@@@@@@",
"@@@@@@@@    ....oooooooooooooooooooooooooooooooo....    @@@@@@@@",
"@@@@@@@@    ....oooooooooooooooooooooooooooooooo....    @@@@@@@@",
"@@@@    OOOOOOOOooooooooooooooooooooooooooooooooOOOOOOOO    @@@@",
"@@@@    OOOOOOOOooooooooooooooooooooooooooooooooOOOOOOOO    @@@@",
"@@@@    OOOOOOOOooooooooooooooooooooooooooooooooOOOOOOOO    @@@@",
"@@@@    OOOOOOOOooooooooooooooooooooooooooooooooOOOOOOOO    @@@@",
"@@@@    OOOOOOOOoooooooooooo        ooooooooooooOOOOOOOO    @@@@",
"@@@@    OOOOOOOOoooooooooooo        ooooooooooooOOOOOOOO    @@@@",
"@@@@    OOOOOOOOoooooooooooo        ooooooooooooOOOOOOOO    @@@@",
"@@@@    OOOOOOOOoooooooooooo        ooooooooooooOOOOOOOO    @@@@",
"@@@@@@@@        ........                ........        @@@@@@@@",
"@@@@@@@@        ........                ........        @@@@@@@@",
"@@@@@@@@        ........                ........        @@@@@@@@",
"@@@@@@@@        ........                ........        @@@@@@@@",
"@@@@@@@@@@@@@@@@@@@@@@@@@@@@@@@@@@@@@@@@@@@@@@@@@@@@@@@@@@@@@@@@",
"@@@@@@@@@@@@@@@@@@@@@@@@@@@@@@@@@@@@@@@@@@@@@@@@@@@@@@@@@@@@@@@@",
"@@@@@@@@@@@@@@@@@@@@@@@@@@@@@@@@@@@@@@@@@@@@@@@@@@@@@@@@@@@@@@@@",
"@@@@@@@@@@@@@@@@@@@@@@@@@@@@@@@@@@@@@@@@@@@@@@@@@@@@@@@@@@@@@@@@"
};
