/* XPM */
static char *enemy_right[] = {
/* columns rows colors chars-per-pixel */
"64 64 8 1 ",
"  c #141B1B",
". c #477238",
"X c #61683A",
"o c #61A53F",
"O c #8FD032",
"+ c #939446",
"@ c white",
"# c None",
/* pixels */
"################################################################",
"################################################################",
"################################################################",
"################################################################",
"################                                ################",
"################                                ################",
"################                                ################",
"################                                ################",
"############    XXXXXXXXXXXX++++++++++++++++++++    ############",
"############    XXXXXXXXXXXX++++++++++++++++++++    ############",
"############    XXXXXXXXXXXX++++++++++++++++++++    ############",
"############    XXXXXXXXXXXX++++++++++++++++++++    ############",
"########    XXXXXXXXXXXXXXXXXXXXXXXX++++++++++++++++    ########",
"########    XXXXXXXXXXXXXXXXXXXXXXXX++++++++++++++++    ########",
"########    XXXXXXXXXXXXXXXXXXXXXXXX++++++++++++++++    ########",
"########    XXXXXXXXXXXXXXXXXXXXXXXX++++++++++++++++    ########",
"########    XXXXXXXXXXXXXXXXXXXXXXXXXXXXXXXXXXXXXXXX    ########",
"########    XXXXXXXXXXXXXXXXXXXXXXXXXXXXXXXXXXXXXXXX    ########",
"########    XXXXXXXXXXXXXXXXXXXXXXXXXXXXXXXXXXXXXXXX    ########",
"########    XXXXXXXXXXXXXXXXXXXXXXXXXXXXXXXXXXXXXXXX    ########",
"########    XXXXXXXXXXXXXXXXXXXXXXXXoooooooooooooooo    ########",
"########    XXXXXXXXXXXXXXXXXXXXXXXXoooooooooooooooo    ########",
"########    XXXXXXXXXXXXXXXXXXXXXXXXoooooooooooooooo    ########",
"########    XXXXXXXXXXXXXXXXXXXXXXXXoooooooooooooooo    ########",
"########    XXXXXXXXXXXXXXXXXXXXooooOOOOOOOOOOOOOOOO    ########",
"########    XXXXXXXXXXXXXXXXXXXXooooOOOOOOOOOOOOOOOO    ########",
"########    XXXXXXXXXXXXXXXXXXXXooooOOOOOOOOOOOOOOOO    ########",
"########    XXXXXXXXXXXXXXXXXXXXooooOOOOOOOOOOOOOOOO    ########",
"########    XXXXXXXXOOOOOOOOXXXXOOOO@@@@@@@@@@@@OOOO    ########",
"########    XXXXXXXXOOOOOOOOXXXXOOOO@@@@@@@@@@@@OOOO    ########",
"########    XXXXXXXXOOOOOOOOXXXXOOOO@@@@@@@@@@@@OOOO    ########",
"########    XXXXXXXXOOOOOOOOXXXXOOOO@@@@@@@@@@@@OOOO    ########",
"########    XXXXXXXXOOOOooooXXXXOOOO@@@@@@@@@@@@OOOO    ########",
"########    XXXXXXXXOOOOooooXXXXOOOO@@@@@@@@@@@@OOOO    ########",
"########    XXXXXXXXOOOOooooXXXXOOOO@@@@@@@@@@@@OOOO    ########",
"########    XXXXXXXXOOOOooooXXXXOOOO@@@@@@@@@@@@OOOO    ########",
"############    XXXXXXXXOOOOOOOOOOOOOOOOOOOOOOOOOOOO    ########",
"############    XXXXXXXXOOOOOOOOOOOOOOOOOOOOOOOOOOOO    ########",
"############    XXXXXXXXOOOOOOOOOOOOOOOOOOOOOOOOOOOO    ########",
"############    XXXXXXXXOOOOOOOOOOOOOOOOOOOOOOOOOOOO    ########",
"################    XXXXXXXXooooOOOOOOOOOOOOOOOO    ############",
"################    XXXXXXXXooooOOOOOOOOOOOOOOOO    ############",
"################    XXXXXXXXooooOOOOOOOOOOOOOOOO    ############",
"################    XXXXXXXXooooOOOOOOOOOOOOOOOO    ############",
"################    ........    ............    ################",
"################    ........    ............    ################",
"################    ........    ............    ################",
"################    ........    ............    ################",
"################    ooooOOOOOOOO    oooooooo    ################",
"################    ooooOOOOOOOO    oooooooo    ################",
"################    ooooOOOOOOOO    oooooooo    ################",
"################    ooooOOOOOOOO    oooooooo    ################",
"####################    OOOOOOOO    oooooooo    ################",
"####################    OOOOOOOO    oooooooo    ################",
"####################    OOOOOOOO    oooooooo    ################",
"####################    OOOOOOOO    oooooooo    ################",
"####################            ........    ####################",
"####################            ........    ####################",
"####################            ........    ####################",
"####################            ........    ####################",
"################################################################",
"################################################################",
"################################################################",
"################################################################"
};
