/* XPM */
static char *enemy_front[] = {
/* columns rows colors chars-per-pixel */
"64 64 8 1 ",
"  c #141B1B",
". c #477238",
"X c #61683A",
"o c #61A53F",
"O c #8FD032",
"+ c #939446",
"@ c white",
"# c None",
/* pixels */
"################################################################",
"################################################################",
"################################################################",
"################################################################",
"################                                ################",
"################                                ################",
"################                                ################",
"################                                ################",
"############    XXXX++++++++++++++++++++++++XXXX    ############",
"############    XXXX++++++++++++++++++++++++XXXX    ############",
"############    XXXX++++++++++++++++++++++++XXXX    ############",
"############    XXXX++++++++++++++++++++++++XXXX    ############",
"########    XXXXXXXXXXXX++++++++++++++++XXXXXXXXXXXX    ########",
"########    XXXXXXXXXXXX++++++++++++++++XXXXXXXXXXXX    ########",
"########    XXXXXXXXXXXX++++++++++++++++XXXXXXXXXXXX    ########",
"########    XXXXXXXXXXXX++++++++++++++++XXXXXXXXXXXX    ########",
"########    XXXXXXXXXXXXXXXXXXXXXXXXXXXXXXXXXXXXXXXX    ########",
"########    XXXXXXXXXXXXXXXXXXXXXXXXXXXXXXXXXXXXXXXX    ########",
"########    XXXXXXXXXXXXXXXXXXXXXXXXXXXXXXXXXXXXXXXX    ########",
"########    XXXXXXXXXXXXXXXXXXXXXXXXXXXXXXXXXXXXXXXX    ########",
"########    XXXXXXXXooooooooooooooooooooooooXXXXXXXX    ########",
"########    XXXXXXXXooooooooooooooooooooooooXXXXXXXX    ########",
"########    XXXXXXXXooooooooooooooooooooooooXXXXXXXX    ########",
"########    XXXXXXXXooooooooooooooooooooooooXXXXXXXX    ########",
"########    XXXXooooOOOOOOOOOOOOOOOO@@@@@@@@@@@@XXXX    ########",
"########    XXXXooooOOOOOOOOOOOOOOOO@@@@@@@@@@@@XXXX    ########",
"########    XXXXooooOOOOOOOOOOOOOOOO@@@@@@@@@@@@XXXX    ########",
"########    XXXXooooOOOOOOOOOOOOOOOO@@@@@@@@@@@@XXXX    ########",
"####    OOOOXXXX@@@@@@@@@@@@OOOO@@@@@@@@@@@@@@@@XXXXOOOO    ####",
"####    OOOOXXXX@@@@@@@@@@@@OOOO@@@@@@@@@@@@@@@@XXXXOOOO    ####",
"####    OOOOXXXX@@@@@@@@@@@@OOOO@@@@@@@@@@@@@@@@XXXXOOOO    ####",
"####    OOOOXXXX@@@@@@@@@@@@OOOO@@@@@@@@@@@@@@@@XXXXOOOO    ####",
"####    OOOOOOOO@@@@@@@@@@@@OOOOOOOO@@@@@@@@@@@@OOOOOOOO    ####",
"####    OOOOOOOO@@@@@@@@@@@@OOOOOOOO@@@@@@@@@@@@OOOOOOOO    ####",
"####    OOOOOOOO@@@@@@@@@@@@OOOOOOOO@@@@@@@@@@@@OOOOOOOO    ####",
"####    OOOOOOOO@@@@@@@@@@@@OOOOOOOO@@@@@@@@@@@@OOOOOOOO    ####",
"########    OOOOOOOOOOOOOOOOOOOOOOOOOOOOOOOOOOOOOOOO    ########",
"########    OOOOOOOOOOOOOOOOOOOOOOOOOOOOOOOOOOOOOOOO    ########",
"########    OOOOOOOOOOOOOOOOOOOOOOOOOOOOOOOOOOOOOOOO    ########",
"########    OOOOOOOOOOOOOOOOOOOOOOOOOOOOOOOOOOOOOOOO    ########",
"############    ....OOOOOOOOOOOOOOOOOOOOOOOO....    ############",
"############    ....OOOOOOOOOOOOOOOOOOOOOOOO....    ############",
"############    ....OOOOOOOOOOOOOOOOOOOOOOOO....    ############",
"############    ....OOOOOOOOOOOOOOOOOOOOOOOO....    ############",
"########    ....oooo........................oooo....    ########",
"########    ....oooo........................oooo....    ########",
"########    ....oooo........................oooo....    ########",
"########    ....oooo........................oooo....    ########",
"####    OOOOOOOOooooooooooooooooooooooooooooooooOOOOOOOO    ####",
"####    OOOOOOOOooooooooooooooooooooooooooooooooOOOOOOOO    ####",
"####    OOOOOOOOooooooooooooooooooooooooooooooooOOOOOOOO    ####",
"####    OOOOOOOOooooooooooooooooooooooooooooooooOOOOOOOO    ####",
"####    OOOOOOOOoooooooooooo        ooooooooooooOOOOOOOO    ####",
"####    OOOOOOOOoooooooooooo        ooooooooooooOOOOOOOO    ####",
"####    OOOOOOOOoooooooooooo        ooooooooooooOOOOOOOO    ####",
"####    OOOOOOOOoooooooooooo        ooooooooooooOOOOOOOO    ####",
"########        ........                ........        ########",
"########        ........                ........        ########",
"########        ........                ........        ########",
"########        ........                ........        ########",
"################################################################",
"################################################################",
"################################################################",
"################################################################"
};
