/* XPM */
static char *enemy_left[] = {
/* columns rows colors chars-per-pixel */
"64 64 8 1 ",
"  c #141B1B",
". c #477238",
"X c #61683A",
"o c #61A53F",
"O c #8FD032",
"+ c #939446",
"@ c white",
"# c None",
/* pixels */
"################################################################",
"################################################################",
"################################################################",
"################################################################",
"################                                ################",
"################                                ################",
"################                                ################",
"################                                ################",
"############    ++++++++++++++++++++XXXXXXXXXXXX    ############",
"############    ++++++++++++++++++++XXXXXXXXXXXX    ############",
"############    ++++++++++++++++++++XXXXXXXXXXXX    ############",
"############    ++++++++++++++++++++XXXXXXXXXXXX    ############",
"########    ++++++++++++++++XXXXXXXXXXXXXXXXXXXXXXXX    ########",
"########    ++++++++++++++++XXXXXXXXXXXXXXXXXXXXXXXX    ########",
"########    ++++++++++++++++XXXXXXXXXXXXXXXXXXXXXXXX    ########",
"########    ++++++++++++++++XXXXXXXXXXXXXXXXXXXXXXXX    ########",
"########    XXXXXXXXXXXXXXXXXXXXXXXXXXXXXXXXXXXXXXXX    ########",
"########    XXXXXXXXXXXXXXXXXXXXXXXXXXXXXXXXXXXXXXXX    ########",
"########    XXXXXXXXXXXXXXXXXXXXXXXXXXXXXXXXXXXXXXXX    ########",
"########    XXXXXXXXXXXXXXXXXXXXXXXXXXXXXXXXXXXXXXXX    ########",
"########    ooooooooooooooooXXXXXXXXXXXXXXXXXXXXXXXX    ########",
"########    ooooooooooooooooXXXXXXXXXXXXXXXXXXXXXXXX    ########",
"########    ooooooooooooooooXXXXXXXXXXXXXXXXXXXXXXXX    ########",
"########    ooooooooooooooooXXXXXXXXXXXXXXXXXXXXXXXX    ########",
"########    OOOOOOOOOOOOOOOOooooXXXXXXXXXXXXXXXXXXXX    ########",
"########    OOOOOOOOOOOOOOOOooooXXXXXXXXXXXXXXXXXXXX    ########",
"########    OOOOOOOOOOOOOOOOooooXXXXXXXXXXXXXXXXXXXX    ########",
"########    OOOOOOOOOOOOOOOOooooXXXXXXXXXXXXXXXXXXXX    ########",
"########    OOOO@@@@@@@@@@@@OOOOXXXXOOOOOOOOXXXXXXXX    ########",
"########    OOOO@@@@@@@@@@@@OOOOXXXXOOOOOOOOXXXXXXXX    ########",
"########    OOOO@@@@@@@@@@@@OOOOXXXXOOOOOOOOXXXXXXXX    ########",
"########    OOOO@@@@@@@@@@@@OOOOXXXXOOOOOOOOXXXXXXXX    ########",
"########    OOOO@@@@@@@@@@@@OOOOXXXXooooOOOOXXXXXXXX    ########",
"########    OOOO@@@@@@@@@@@@OOOOXXXXooooOOOOXXXXXXXX    ########",
"########    OOOO@@@@@@@@@@@@OOOOXXXXooooOOOOXXXXXXXX    ########",
"########    OOOO@@@@@@@@@@@@OOOOXXXXooooOOOOXXXXXXXX    ########",
"########    OOOOOOOOOOOOOOOOOOOOOOOOOOOOXXXXXXXX    ############",
"########    OOOOOOOOOOOOOOOOOOOOOOOOOOOOXXXXXXXX    ############",
"########    OOOOOOOOOOOOOOOOOOOOOOOOOOOOXXXXXXXX    ############",
"########    OOOOOOOOOOOOOOOOOOOOOOOOOOOOXXXXXXXX    ############",
"############    OOOOOOOOOOOOOOOOooooXXXXXXXX    ################",
"############    OOOOOOOOOOOOOOOOooooXXXXXXXX    ################",
"############    OOOOOOOOOOOOOOOOooooXXXXXXXX    ################",
"############    OOOOOOOOOOOOOOOOooooXXXXXXXX    ################",
"################    ............    ........    ################",
"################    ............    ........    ################",
"################    ............    ........    ################",
"################    ............    ........    ################",
"################    oooooooo    OOOOOOOOoooo    ################",
"################    oooooooo    OOOOOOOOoooo    ################",
"################    oooooooo    OOOOOOOOoooo    ################",
"################    oooooooo    OOOOOOOOoooo    ################",
"################    oooooooo    OOOOOOOO    ####################",
"################    oooooooo    OOOOOOOO    ####################",
"################    oooooooo    OOOOOOOO    ####################",
"################    oooooooo    OOOOOOOO    ####################",
"####################    ........            ####################",
"####################    ........            ####################",
"####################    ........            ####################",
"####################    ........            ####################",
"################################################################",
"################################################################",
"################################################################",
"################################################################"
};
