/* XPM */
static char *exit_close[] = {
/* columns rows colors chars-per-pixel */
"64 64 9 1 ",
"  c #141B1B",
". c #543C52",
"X c #E66A3A",
"o c #965340",
"O c #BD7959",
"+ c #FFAD5D",
"@ c #F2AD7D",
"# c #FFCB8D",
"$ c #E7C4B4",
/* pixels */
"OOOOooooOOOOoooooooooooo....oooooooooooooooooooo....OOOOOOOOOOOO",
"OOOOooooOOOOoooooooooooo....oooooooooooooooooooo....OOOOOOOOOOOO",
"OOOOooooOOOOoooooooooooo....oooooooooooooooooooo....OOOOOOOOOOOO",
"OOOOooooOOOOoooooooooooo....oooooooooooooooooooo....OOOOOOOOOOOO",
"OOOO....oooooooooooooooo....oooooooooooooooooooo....ooooOOOOOOOO",
"OOOO....oooooooooooooooo....oooooooooooooooooooo....ooooOOOOOOOO",
"OOOO....oooooooooooooooo....oooooooooooooooooooo....ooooOOOOOOOO",
"OOOO....oooooooooooooooo....oooooooooooooooooooo....ooooOOOOOOOO",
"OOOOoooo........                            ....ooooooooooooOOOO",
"OOOOoooo........                            ....ooooooooooooOOOO",
"OOOOoooo........                            ....ooooooooooooOOOO",
"OOOOoooo........                            ....ooooooooooooOOOO",
"oooooooooooo                                        ooooooooOOOO",
"oooooooooooo                                        ooooooooOOOO",
"oooooooooooo                                        ooooooooOOOO",
"oooooooooooo                                        ooooooooOOOO",
"oooooooooooo                ++++++++++++++++++++++++++++oooooooo",
"oooooooooooo                ++++++++++++++++++++++++++++oooooooo",
"oooooooooooo                ++++++++++++++++++++++++++++oooooooo",
"oooooooooooo                ++++++++++++++++++++++++++++oooooooo",
"oooooooo++++++++++++++++++++XXXXXXXXXXXXXXXXXXXX$$$$XXXXoooooooo",
"oooooooo++++++++++++++++++++XXXXXXXXXXXXXXXXXXXX$$$$XXXXoooooooo",
"oooooooo++++++++++++++++++++XXXXXXXXXXXXXXXXXXXX$$$$XXXXoooooooo",
"oooooooo++++++++++++++++++++XXXXXXXXXXXXXXXXXXXX$$$$XXXXoooooooo",
"ooooooooXXXX$$$$XXXXXXXXXXXXXXXXXXXXXXXXXXXXoooooooooooooooooooo",
"ooooooooXXXX$$$$XXXXXXXXXXXXXXXXXXXXXXXXXXXXoooooooooooooooooooo",
"ooooooooXXXX$$$$XXXXXXXXXXXXXXXXXXXXXXXXXXXXoooooooooooooooooooo",
"ooooooooXXXX$$$$XXXXXXXXXXXXXXXXXXXXXXXXXXXXoooooooooooooooooooo",
"ooooooooXXXXXXXXXXXXXXXXXXXXXXXX                        oooooooo",
"ooooooooXXXXXXXXXXXXXXXXXXXXXXXX                        oooooooo",
"ooooooooXXXXXXXXXXXXXXXXXXXXXXXX                        oooooooo",
"ooooooooXXXXXXXXXXXXXXXXXXXXXXXX                        oooooooo",
"oooooooo                        oooooooooooooooo++++++++oooooooo",
"oooooooo                        oooooooooooooooo++++++++oooooooo",
"oooooooo                        oooooooooooooooo++++++++oooooooo",
"oooooooo                        oooooooooooooooo++++++++oooooooo",
"ooooooooooooooooooooooooXXXXXXXXXXXXXXXXXXXXXXXXXXXXXXXXoooooooo",
"ooooooooooooooooooooooooXXXXXXXXXXXXXXXXXXXXXXXXXXXXXXXXoooooooo",
"ooooooooooooooooooooooooXXXXXXXXXXXXXXXXXXXXXXXXXXXXXXXXoooooooo",
"ooooooooooooooooooooooooXXXXXXXXXXXXXXXXXXXXXXXXXXXXXXXXoooooooo",
"ooooooooooooooooooooooooXXXXXXXXooooooooooooXXXX$$$$XXXXoooooooo",
"ooooooooooooooooooooooooXXXXXXXXooooooooooooXXXX$$$$XXXXoooooooo",
"ooooooooooooooooooooooooXXXXXXXXooooooooooooXXXX$$$$XXXXoooooooo",
"ooooooooooooooooooooooooXXXXXXXXooooooooooooXXXX$$$$XXXXoooooooo",
"oooooooo                XXXXXXXXXXXXXXXXXXXXoooooooooooooooooooo",
"oooooooo                XXXXXXXXXXXXXXXXXXXXoooooooooooooooooooo",
"oooooooo                XXXXXXXXXXXXXXXXXXXXoooooooooooooooooooo",
"oooooooo                XXXXXXXXXXXXXXXXXXXXoooooooooooooooooooo",
"oooo........    OOOO@@@@                XXXXXXXXXXXXXXXX....oooo",
"oooo........    OOOO@@@@                XXXXXXXXXXXXXXXX....oooo",
"oooo........    OOOO@@@@                XXXXXXXXXXXXXXXX....oooo",
"oooo........    OOOO@@@@                XXXXXXXXXXXXXXXX....oooo",
"................@@@@@@@@@@@@@@@@@@@@@@@@                ........",
"................@@@@@@@@@@@@@@@@@@@@@@@@                ........",
"................@@@@@@@@@@@@@@@@@@@@@@@@                ........",
"................@@@@@@@@@@@@@@@@@@@@@@@@                ........",
"............@@@@@@@@########################@@@@@@@@............",
"............@@@@@@@@########################@@@@@@@@............",
"............@@@@@@@@########################@@@@@@@@............",
"............@@@@@@@@########################@@@@@@@@............",
"################################################################",
"################################################################",
"################################################################",
"################################################################"
};
