/* XPM */
static char *exit_open[] = {
/* columns rows colors chars-per-pixel */
"32 32 119 2 ",
"   c #0D1718",
".  c #0F1919",
"X  c #131B1B",
"o  c #1A1E1D",
"O  c #1E2025",
"+  c #272427",
"@  c #2C2523",
"#  c #2F2A24",
"$  c #222329",
"%  c #312723",
"&  c #332924",
"*  c #3F2F2E",
"=  c #3D322A",
"-  c #292530",
";  c #372D3B",
":  c #402F2E",
">  c #4C332B",
",  c #493935",
"<  c #5E3B30",
"1  c #5D4335",
"2  c #604638",
"3  c #6B423C",
"4  c #774537",
"5  c #794637",
"6  c #794638",
"7  c #724F3D",
"8  c #7D483A",
"9  c #74513E",
"0  c #433346",
"q  c #4B3749",
"w  c #4D384E",
"e  c #513843",
"r  c #593C45",
"t  c #4E3750",
"y  c #4F3851",
"u  c #523B52",
"i  c #593E52",
"p  c #613E4B",
"a  c #5F404F",
"s  c #5A4054",
"d  c #64414E",
"f  c #6C444C",
"g  c #694C4F",
"h  c #7B4946",
"j  c #71464B",
"k  c #774C4F",
"l  c #7B4A48",
"z  c #634150",
"x  c #6E4E5A",
"c  c #794F51",
"v  c #7C5E61",
"b  c #7E6061",
"n  c #776774",
"m  c #796975",
"M  c #814A3A",
"N  c #954F3B",
"B  c #95513E",
"V  c #99533E",
"C  c #854C42",
"Z  c #8A4E44",
"A  c #814C48",
"S  c #8C5145",
"D  c #965340",
"F  c #995441",
"G  c #9E5A44",
"H  c #94594A",
"J  c #A05C45",
"K  c #96634B",
"L  c #9A604F",
"P  c #A7634B",
"I  c #A1694E",
"U  c #AD694F",
"Y  c #A36D54",
"T  c #AB6C54",
"R  c #AB7355",
"E  c #B57254",
"W  c #BB7656",
"Q  c #BE7857",
"!  c #BB7758",
"~  c #BF7A59",
"^  c #996D65",
"/  c #93716D",
"(  c #9D7569",
")  c #83707A",
"_  c #A0766A",
"`  c #AD7A6B",
"'  c #C17B5B",
"]  c #BF8669",
"[  c #B78172",
"{  c #B58B7F",
"}  c #CB8662",
"|  c #D08964",
" . c #D5936B",
".. c #DB936B",
"X. c #C6917C",
"o. c #CA9179",
"O. c #D79976",
"+. c #DDA37B",
"@. c #D9AA7E",
"#. c #E6A174",
"$. c #E9A376",
"%. c #EDA779",
"&. c #E5AE7B",
"*. c #F3AD7D",
"=. c #ECB37D",
"-. c #F6B17F",
";. c #CD9781",
":. c #CE9881",
">. c #D7AA80",
",. c #DAAC80",
"<. c #E2B283",
"1. c #ECB782",
"2. c #F5B481",
"3. c #F9B782",
"4. c #F3BA82",
"5. c #FBBC85",
"6. c #F7C189",
"7. c #FCC489",
"8. c #FFCD8E",
/* pixels */
":.X.[ [ X.X.[ ` _ _ _ / m m / _ _ _ _ _ _ _ _ / n ) { :.:.;.;.o.",
"Q T D Z P U V N N N V C p p M V V V V N F N N C p f L W W Q Q Q ",
"Q Y k f S G V V V V V C p p Z V V N V F F N N C p p S J E Q Q Q ",
"' T c f l C Z C 8 5 5 3 e e 3 5 6 6 6 6 4 8 C A f f Z G U E Q Q ",
"~ E H h f d d r : & & @ + + @ & & & % % % : r j A Z D D G P E ' ",
"E U J S f a q ; O . . X X X X X . X X . . O ; e 3 M D D D G E Q ",
"G G F D S 3 * O X X X X X X X X X X X X X o O + @ > M D D J E E ",
"B D D F F 5 #   X X X X X X X X X X X X X X X . . & 6 D D G U U ",
"D D D F F 5 & X X X X X X X X o X X X X o X X X . & 6 F F F G G ",
"D D D N M < @ X X X X X X X X X o X X X X X X X . @ < M D D D D ",
"D D D 8 > @ o X X o X X o X X X X X X o X X X X X o @ > 8 F D D ",
"D F F 4 @ . X X X X X X X X X X X X X X X X X X X X . % 4 F D D ",
"D F F 4 & . X X X X o X X X o X X o X X X X o X X X . & 4 F F D ",
"D F F 6 & X X X X X X X X X X X X X X X X X X X X X X & 6 F F D ",
"D F F 4 & . X X X X X X X X X X X X X X X X X X X X . & 6 F D D ",
"D F F 4 & X X X X o X X X o X X X X o X X o X X X X . % 4 F F D ",
"D F F 4 & X X X X X X X X X X X X X o X X o X X X X . & 5 F F D ",
"D F F 4 & . X X X X X X X . X X X . X . X X X X X X . & 4 V F B ",
"D F F 4 &   . X o X X X X . . X X X . . X X X X X X . & 4 F F D ",
"D D F 8 = O o X X X . O & = = = = = : & o X X X X o O : 8 F F D ",
"D D F C r ; O X X . . # 9 K K K K K K h #   . X o O ; r C D D D ",
"D F B Z d 0 $ X X o # 1 I ' ' ' ~ ' ' Y 1 # o . . + 0 z Z D F D ",
"D D F Z g 0 $ . . # 9 L E ~ ~ ! Q ~ ~ E K 9 #   . $ 0 f Z V V D ",
"D D Z l d 0 $ o & 2 R | } } } } } } } }  .R 2 # o $ 0 s l S D D ",
"V S j d s 0 O # 7 R  .#.#.#.#.#.#.#.#.#.$. .R 7 # O 0 u z j S V ",
"Z l s u i 0 - , Y ..%.*.-.*.*.*.*.*.*.*.-.%...Y , + q u u s h S ",
"d a i u i w 0 g ] %.*.*.*.*.*.*.*.*.-.*.*.%.%.] g 0 t u u i a d ",
"t u u t t i x ^ O.-.2.2.2.2.2.2.2.2.2.2.2.2.-.O.^ x s u u u t u ",
"y u t y y x ` O.%.2.5.7.7.7.7.8.7.7.7.7.7.5.-.%.O.` x t w u y y ",
"v b b b v ( +.3.4.5.8.8.8.8.8.8.8.8.8.8.8.8.5.3.5.+.( b v v b v ",
">.,.@.>.@.<.6.8.8.8.8.8.8.8.8.8.8.8.8.8.8.8.8.7.8.6.<.>.>.>.>.>.",
"4.4.=.=.4.1.=.&.&.&.&.&.@.@.&.&.&.&.&.&.&.&.&.&.@.@.1.4.4.4.4.5."
};
