/* XPM */
static char *exit_open[] = {
/* columns rows colors chars-per-pixel */
"64 64 6 1 ",
"  c #141B1B",
". c #543C52",
"X c #965340",
"o c #BD7959",
"O c #F2AD7D",
"+ c #FFCB8D",
/* pixels */
"ooooXXXXooooXXXXXXXXXXXX....XXXXXXXXXXXXXXXXXXXX....oooooooooooo",
"ooooXXXXooooXXXXXXXXXXXX....XXXXXXXXXXXXXXXXXXXX....oooooooooooo",
"ooooXXXXooooXXXXXXXXXXXX....XXXXXXXXXXXXXXXXXXXX....oooooooooooo",
"ooooXXXXooooXXXXXXXXXXXX....XXXXXXXXXXXXXXXXXXXX....oooooooooooo",
"oooo....XXXXXXXXXXXXXXXX....XXXXXXXXXXXXXXXXXXXX....XXXXoooooooo",
"oooo....XXXXXXXXXXXXXXXX....XXXXXXXXXXXXXXXXXXXX....XXXXoooooooo",
"oooo....XXXXXXXXXXXXXXXX....XXXXXXXXXXXXXXXXXXXX....XXXXoooooooo",
"oooo....XXXXXXXXXXXXXXXX....XXXXXXXXXXXXXXXXXXXX....XXXXoooooooo",
"ooooXXXX........                            ....XXXXXXXXXXXXoooo",
"ooooXXXX........                            ....XXXXXXXXXXXXoooo",
"ooooXXXX........                            ....XXXXXXXXXXXXoooo",
"ooooXXXX........                            ....XXXXXXXXXXXXoooo",
"XXXXXXXXXXXX                                        XXXXXXXXoooo",
"XXXXXXXXXXXX                                        XXXXXXXXoooo",
"XXXXXXXXXXXX                                        XXXXXXXXoooo",
"XXXXXXXXXXXX                                        XXXXXXXXoooo",
"XXXXXXXXXXXX                                        XXXXXXXXXXXX",
"XXXXXXXXXXXX                                        XXXXXXXXXXXX",
"XXXXXXXXXXXX                                        XXXXXXXXXXXX",
"XXXXXXXXXXXX                                        XXXXXXXXXXXX",
"XXXXXXXX                                                XXXXXXXX",
"XXXXXXXX                                                XXXXXXXX",
"XXXXXXXX                                                XXXXXXXX",
"XXXXXXXX                                                XXXXXXXX",
"XXXXXXXX                                                XXXXXXXX",
"XXXXXXXX                                                XXXXXXXX",
"XXXXXXXX                                                XXXXXXXX",
"XXXXXXXX                                                XXXXXXXX",
"XXXXXXXX                                                XXXXXXXX",
"XXXXXXXX                                                XXXXXXXX",
"XXXXXXXX                                                XXXXXXXX",
"XXXXXXXX                                                XXXXXXXX",
"XXXXXXXX                                                XXXXXXXX",
"XXXXXXXX                                                XXXXXXXX",
"XXXXXXXX                                                XXXXXXXX",
"XXXXXXXX                                                XXXXXXXX",
"XXXXXXXX                                                XXXXXXXX",
"XXXXXXXX                                                XXXXXXXX",
"XXXXXXXX                                                XXXXXXXX",
"XXXXXXXX                                                XXXXXXXX",
"XXXXXXXX....            oooooooooooooooo            ....XXXXXXXX",
"XXXXXXXX....            oooooooooooooooo            ....XXXXXXXX",
"XXXXXXXX....            oooooooooooooooo            ....XXXXXXXX",
"XXXXXXXX....            oooooooooooooooo            ....XXXXXXXX",
"XXXXXXXX....        oooooooooooooooooooooooo        ....XXXXXXXX",
"XXXXXXXX....        oooooooooooooooooooooooo        ....XXXXXXXX",
"XXXXXXXX....        oooooooooooooooooooooooo        ....XXXXXXXX",
"XXXXXXXX....        oooooooooooooooooooooooo        ....XXXXXXXX",
"XXXX........    ooooOOOOOOOOOOOOOOOOOOOOOOOOoooo    ........XXXX",
"XXXX........    ooooOOOOOOOOOOOOOOOOOOOOOOOOoooo    ........XXXX",
"XXXX........    ooooOOOOOOOOOOOOOOOOOOOOOOOOoooo    ........XXXX",
"XXXX........    ooooOOOOOOOOOOOOOOOOOOOOOOOOoooo    ........XXXX",
"................OOOOOOOOOOOOOOOOOOOOOOOOOOOOOOOO................",
"................OOOOOOOOOOOOOOOOOOOOOOOOOOOOOOOO................",
"................OOOOOOOOOOOOOOOOOOOOOOOOOOOOOOOO................",
"................OOOOOOOOOOOOOOOOOOOOOOOOOOOOOOOO................",
"............OOOOOOOO++++++++++++++++++++++++OOOOOOOO............",
"............OOOOOOOO++++++++++++++++++++++++OOOOOOOO............",
"............OOOOOOOO++++++++++++++++++++++++OOOOOOOO............",
"............OOOOOOOO++++++++++++++++++++++++OOOOOOOO............",
"++++++++++++++++++++++++++++++++++++++++++++++++++++++++++++++++",
"++++++++++++++++++++++++++++++++++++++++++++++++++++++++++++++++",
"++++++++++++++++++++++++++++++++++++++++++++++++++++++++++++++++",
"++++++++++++++++++++++++++++++++++++++++++++++++++++++++++++++++"
};
