/* XPM */
static char *kid_front[] = {
/* columns rows colors chars-per-pixel */
"32 32 183 2 ",
"   c #0C1515",
".  c #0C1719",
"X  c #0E191A",
"o  c #061416",
"O  c #12191A",
"+  c #181C1E",
"@  c #211E1F",
"#  c #1E211E",
"$  c #3D231F",
"%  c #32211E",
"&  c #1C1E21",
"*  c #141F20",
"=  c #231E26",
"-  c #261E29",
";  c #281E29",
":  c #1C2223",
">  c #212526",
",  c #2B222B",
"<  c #252E2A",
"1  c #2D2C2E",
"2  c #262629",
"3  c #3E2621",
"4  c #36272A",
"5  c #3A3024",
"6  c #2F2730",
"7  c #2F2A31",
"8  c #322A31",
"9  c #302730",
"0  c #3A353A",
"q  c #3F3C3E",
"w  c #353537",
"e  c #422522",
"r  c #4E2527",
"t  c #4C2729",
"y  c #442A29",
"u  c #52292B",
"i  c #443323",
"p  c #493726",
"a  c #4B392A",
"s  c #43322A",
"d  c #4C3E35",
"f  c #403C3F",
"g  c #4C3A3A",
"h  c #563434",
"j  c #55312F",
"k  c #683929",
"l  c #344038",
"z  c #594539",
"x  c #6D432C",
"c  c #69482C",
"v  c #6A4735",
"b  c #343D40",
"n  c #433E41",
"m  c #384244",
"M  c #454242",
"N  c #4A4446",
"B  c #414F45",
"V  c #4C4648",
"C  c #454A4C",
"Z  c #4E494A",
"A  c #4A4845",
"S  c #504B4D",
"D  c #59484F",
"F  c #4C5B4F",
"G  c #4A554C",
"H  c #52514E",
"J  c #5F574E",
"K  c #4E4750",
"L  c #514C50",
"P  c #495553",
"I  c #515251",
"U  c #58515B",
"Y  c #565A58",
"T  c #624842",
"R  c #625A4F",
"E  c #715F4F",
"W  c #715147",
"Q  c #6D5E51",
"!  c #526354",
"~  c #59675C",
"^  c #5C6C5D",
"/  c #586158",
"(  c #5D705E",
")  c #7B6956",
"_  c #615C61",
"`  c #5F7260",
"'  c #6B696D",
"]  c #617362",
"[  c #70706E",
"{  c #787174",
"}  c #756B6A",
"|  c #84362B",
" . c #8D3E33",
".. c #A53D2E",
"X. c #A93D2C",
"o. c #A73E30",
"O. c #A83F31",
"+. c #905238",
"@. c #AB4031",
"#. c #B4563B",
"$. c #B75539",
"%. c #9A633B",
"&. c #BA723F",
"*. c #C4583D",
"=. c #DD5C39",
"-. c #DE5438",
";. c #E15F3C",
":. c #C36D3E",
">. c #D8633C",
",. c #E66A3F",
"<. c #884B40",
"1. c #A7584D",
"2. c #9C6B47",
"3. c #857B5D",
"4. c #81765B",
"5. c #806547",
"6. c #BB6642",
"7. c #BC7441",
"8. c #B36056",
"9. c #836666",
"0. c #C47442",
"q. c #C47A44",
"w. c #CB7B45",
"e. c #CA7D4E",
"r. c #DE7D46",
"t. c #E26441",
"y. c #E57546",
"u. c #EA7E45",
"i. c #E17F48",
"p. c #E87968",
"a. c #79857A",
"s. c #9C8054",
"d. c #BE8956",
"f. c #C88451",
"g. c #D28D55",
"h. c #D98D55",
"j. c #CD9E5E",
"k. c #EE8249",
"l. c #E7874A",
"z. c #F1884C",
"x. c #F1914E",
"c. c #F8924F",
"v. c #F49450",
"b. c #F29A55",
"n. c #FC9852",
"m. c #F19F58",
"M. c #E98D55",
"N. c #EBA35D",
"B. c #C89A68",
"V. c #C08863",
"C. c #D0A260",
"Z. c #C2A162",
"A. c #E7A26F",
"S. c #E8A26F",
"D. c #F3B96A",
"F. c #FFB17D",
"G. c #F3A760",
"H. c #F5C571",
"J. c #838F84",
"K. c #969B9E",
"L. c #B89C9C",
"P. c #9B9BA1",
"I. c #A29BA2",
"U. c #A4A3A5",
"Y. c #B2ABAE",
"T. c #B1AFB0",
"R. c #F9B380",
"E. c #C09FA1",
"W. c #D2BEAE",
"Q. c #C8B1A9",
"!. c #C2BCC3",
"~. c #CDC7CE",
"^. c #C5C3CA",
"/. c #D0C8CE",
"(. c #CACED2",
"). c #D0CFD0",
"_. c #D1D0D1",
"`. c #FAD0CF",
"'. c #F9CFCE",
"]. c #FFE2D6",
"[. c #FFF2E1",
"{. c #FCF3FB",
"}. c None",
/* pixels */
"}.}.}.}.}.}.}.}.+ O O O O O O O O O O O X X * X }.}.}.}.}.}.}.}.",
"}.}.}.}.}.}.}.}.< < < < < < < < < < < < < < < < }.}.}.}.}.}.}.}.",
"}.}.}.}.}.}.  < B F F F F F F F F F F F P ! ! m < X }.}.}.}.}.}.",
"}.}.}.}.}.}.< w ! ] ] ] ] ] ] ] ] ] ] ] ] ] ] ! w < }.}.}.}.}.}.",
"}.}.O O O < m ! ^ ` ] ` ] ` ] ` ] ] ` ` ` ` ] ^ ! m < X O O }.}.",
"}.}.> : + < F ] ` ` ` ` ` ` ` ` ( ( ( ( ( ` ] ] ] G < # : > }.}.",
"O > 0 w : > z ! ` ] ] ] ` ] ] ` ( ` ` ( ( ( ` ^ / z : : w 0 > O ",
"O > n M 1 7 b G J ~ ~ ~ ~ ~ ~ ] a.s.J.J.J.a.] Y H m 1 1 M M > O ",
"O > z C M f N S S H H H S S H [ Y.).).).).T.} S A N n M V n > O ",
"O > w M Z S S Z S N S S Z V N { /.{.{.{.{.~.{ V V Z S Z N 0 : O ",
"O & , 0 n D S S Z Z V Z K V N { /.{.{.{.{.).{ N V S D N 0 2 & O ",
"O * = 6 f n n n f n n n n n b _ I.!.!.!.!.I._ b b n n 0 , = + O ",
"O & - , 8 8 8 8 9 9 7 7 7 7 7 0 K U U U U K 0 6 8 8 8 2 > + }.}.",
"O + - ; ; - - 4 z h j u u u u u r r r r r r u u u u u e @ X }.}.",
"O + > ; - - = a s.d.#.o.o.O.O.o.o...o.......O.O.@.@.@.| 4 . O O ",
"O = y j z z z ) C.G.y.=.=.=.=.=.=.=.=.;.=.=.=.=.;.>.;.$.k 5 # O ",
". 3 | #.d.d.B.j.N.b.z.l.k.k.u.u.u.u.u.k.u.u.u.u.k.k.k.i.q.+.5 X ",
". $ @.>.N.D.H.D.m.x.x.l.7.f.A.F.R.A.f.f.A.R.R.A.f.q.l.n.n.q.a X ",
"X 3 ..-.t.M.D.D.m.x.x.q.c Q W.[.[.W.E E W.[.[.W.Q c q.c.n.7.a . ",
"X 3 | ....#.g.G.b.x.x.q.c J U.(.(.K.b b K.(.(.U.J c &.i.f.%.s . ",
"}.}.3 3 3 k #.y.z.v.x.l.w.2.R P P b & : m P P J 2.0.>.$.x i }.}.",
"}.}.X X & y  .$.&.0.r.z.c.f.c i i p p p i s i x 0.y.*.| % o }.}.",
"}.}.  # 8 n T z d k #.,.z.l.q.&.7.7.7.7.7.7.&.:.=.*.<.h @ o }.}.",
"}.}.m Y ' ' L w , 3 +.6.e.g.g.g.g.g.g.g.g.g.g.e.$.1.} ' Y C }.}.",
"X C K.^.~.U.U 8 w N Q ) 3.3.3.3.3.3.3.3.) a.s.) W 9.Y.~.^.K.C   ",
"  N L.'.'.E.D , n H / ~ ~ ~ ~ ~ ~ ~ ~ ~ ^ ~ ~ Y Z } Q.].].Q.M   ",
"X s 8.p.p.8.h 8 f D H H H I I I P I P Z F H I H Z ) B.F.F.V.a X ",
"X $ | ..X.| y 7 f M M f q q q q q q q q q z g f b T 1.&.&.%.i X ",
"}.}.$ e u y 4 ; 9 8 8 9 2 > > > > > : 2 9 8 8 8 8 8 s p p i }.}.",
"}.}.O * = , , ; , , ; - + O O O O O O + - , , ; , = O X X   }.}.",
"}.}.}.}.}.}.}.}.}.}.}.}.}.}.}.}.}.}.}.}.}.}.}.}.}.}.}.}.}.}.}.}.",
"}.}.}.}.}.}.}.}.}.}.}.}.}.}.}.}.}.}.}.}.}.}.}.}.}.}.}.}.}.}.}.}."
};
