/* XPM */
static char *player_right[] = {
/* columns rows colors chars-per-pixel */
"64 64 10 1 ",
"  c #141B1B",
". c #2B212A",
"X c #4E484A",
"o c #5F7160",
"O c #D14B34",
"+ c #EF914F",
"@ c #F1C471",
"# c #F2EAF1",
"$ c white",
"% c None",
/* pixels */
"%%%%%%%%%%%%%%%%%%%%%%%%%%%%%%%%%%%%%%%%%%%%%%%%%%%%%%%%%%%%%%%%",
"%%%%%%%%%%%%%%%%%%%%%%%%%%%%%%%%%%%%%%%%%%%%%%%%%%%%%%%%%%%%%%%%",
"%%%%%%%%%%%%%%%%%%%%%%%%%%%%%%%%%%%%%%%%%%%%%%%%%%%%%%%%%%%%%%%%",
"%%%%%%%%%%%%%%%%%%%%%%%%%%%%%%%%%%%%%%%%%%%%%%%%%%%%%%%%%%%%%%%%",
"%%%%%%%%%%%%%%%%                                %%%%%%%%%%%%%%%%",
"%%%%%%%%%%%%%%%%                                %%%%%%%%%%%%%%%%",
"%%%%%%%%%%%%%%%%                                %%%%%%%%%%%%%%%%",
"%%%%%%%%%%%%%%%%                                %%%%%%%%%%%%%%%%",
"%%%%%%%%%%%%    oooooooooooooooooooooooooooooooo    %%%%%%%%%%%%",
"%%%%%%%%%%%%    oooooooooooooooooooooooooooooooo    %%%%%%%%%%%%",
"%%%%%%%%%%%%    oooooooooooooooooooooooooooooooo    %%%%%%%%%%%%",
"%%%%%%%%%%%%    oooooooooooooooooooooooooooooooo    %%%%%%%%%%%%",
"%%%%        oooooooooooooooooooooooooooooooooooooooo        %%%%",
"%%%%        oooooooooooooooooooooooooooooooooooooooo        %%%%",
"%%%%        oooooooooooooooooooooooooooooooooooooooo        %%%%",
"%%%%        oooooooooooooooooooooooooooooooooooooooo        %%%%",
"    XXXX    XXXXooooooooooooooooooooooooooooooooXXXX    XXXX    ",
"    XXXX    XXXXooooooooooooooooooooooooooooooooXXXX    XXXX    ",
"    XXXX    XXXXooooooooooooooooooooooooooooooooXXXX    XXXX    ",
"    XXXX    XXXXooooooooooooooooooooooooooooooooXXXX    XXXX    ",
"    XXXXXXXXXXXXXXXXXXXXXXXXXXXX############XXXXXXXXXXXXXXXX    ",
"    XXXXXXXXXXXXXXXXXXXXXXXXXXXX############XXXXXXXXXXXXXXXX    ",
"    XXXXXXXXXXXXXXXXXXXXXXXXXXXX############XXXXXXXXXXXXXXXX    ",
"    XXXXXXXXXXXXXXXXXXXXXXXXXXXX############XXXXXXXXXXXXXXXX    ",
"    ....XXXXXXXXXXXXXXXXXXXXXXXX############XXXXXXXXXXXX....    ",
"    ....XXXXXXXXXXXXXXXXXXXXXXXX############XXXXXXXXXXXX....    ",
"    ....XXXXXXXXXXXXXXXXXXXXXXXX############XXXXXXXXXXXX....    ",
"    ....XXXXXXXXXXXXXXXXXXXXXXXX############XXXXXXXXXXXX....    ",
"    ....................................................    %%%%",
"    ....................................................    %%%%",
"    ....................................................    %%%%",
"    ....................................................    %%%%",
"    ............@@@@@@@@@@@@@@@@@@@@OOOOOOOOOOOOOOOOOOOO        ",
"    ............@@@@@@@@@@@@@@@@@@@@OOOOOOOOOOOOOOOOOOOO        ",
"    ............@@@@@@@@@@@@@@@@@@@@OOOOOOOOOOOOOOOOOOOO        ",
"    ............@@@@@@@@@@@@@@@@@@@@OOOOOOOOOOOOOOOOOOOO        ",
"    OOOO@@@@@@@@@@@@@@@@@@@@@@@@@@@@++++++++++++++++++++++++    ",
"    OOOO@@@@@@@@@@@@@@@@@@@@@@@@@@@@++++++++++++++++++++++++    ",
"    OOOO@@@@@@@@@@@@@@@@@@@@@@@@@@@@++++++++++++++++++++++++    ",
"    OOOO@@@@@@@@@@@@@@@@@@@@@@@@@@@@++++++++++++++++++++++++    ",
"    OOOOOOOO@@@@@@@@OOOOOOOOOOOO++++++++++++        $$$$$$$$    ",
"    OOOOOOOO@@@@@@@@OOOOOOOOOOOO++++++++++++        $$$$$$$$    ",
"    OOOOOOOO@@@@@@@@OOOOOOOOOOOO++++++++++++        $$$$$$$$    ",
"    OOOOOOOO@@@@@@@@OOOOOOOOOOOO++++++++++++        $$$$$$$$    ",
"%%%%    OOOOOOOOOOOOOOOOOOOOOOOO++++++++++++++++                ",
"%%%%    OOOOOOOOOOOOOOOOOOOOOOOO++++++++++++++++                ",
"%%%%    OOOOOOOOOOOOOOOOOOOOOOOO++++++++++++++++                ",
"%%%%    OOOOOOOOOOOOOOOOOOOOOOOO++++++++++++++++                ",
"%%%%%%%%            OOOOOOOOOOOOOOOO++++++++++++OOOOOOOOOOOO    ",
"%%%%%%%%            OOOOOOOOOOOOOOOO++++++++++++OOOOOOOOOOOO    ",
"%%%%%%%%            OOOOOOOOOOOOOOOO++++++++++++OOOOOOOOOOOO    ",
"%%%%%%%%            OOOOOOOOOOOOOOOO++++++++++++OOOOOOOOOOOO    ",
"%%%%%%%%%%%%    oooooooo    ########    ooooooooXXXX        %%%%",
"%%%%%%%%%%%%    oooooooo    ########    ooooooooXXXX        %%%%",
"%%%%%%%%%%%%    oooooooo    ########    ooooooooXXXX        %%%%",
"%%%%%%%%%%%%    oooooooo    ########    ooooooooXXXX        %%%%",
"%%%%%%%%    ....XXXXXXXX    ++++++++    XXXXXXXXXXXX    %%%%%%%%",
"%%%%%%%%    ....XXXXXXXX    ++++++++    XXXXXXXXXXXX    %%%%%%%%",
"%%%%%%%%    ....XXXXXXXX    ++++++++    XXXXXXXXXXXX    %%%%%%%%",
"%%%%%%%%    ....XXXXXXXX    ++++++++    XXXXXXXXXXXX    %%%%%%%%",
"%%%%%%%%    ............                ................    %%%%",
"%%%%%%%%    ............                ................    %%%%",
"%%%%%%%%    ............                ................    %%%%",
"%%%%%%%%    ............                ................    %%%%"
};
