/* XPM */
static char *player_left[] = {
/* columns rows colors chars-per-pixel */
"64 64 10 1 ",
"  c #141B1B",
". c #2B212A",
"X c #4E484A",
"o c #5F7160",
"O c #D14B34",
"+ c #EF914F",
"@ c #F1C471",
"# c #F2EAF1",
"$ c white",
"% c None",
/* pixels */
"%%%%%%%%%%%%%%%%%%%%%%%%%%%%%%%%%%%%%%%%%%%%%%%%%%%%%%%%%%%%%%%%",
"%%%%%%%%%%%%%%%%%%%%%%%%%%%%%%%%%%%%%%%%%%%%%%%%%%%%%%%%%%%%%%%%",
"%%%%%%%%%%%%%%%%%%%%%%%%%%%%%%%%%%%%%%%%%%%%%%%%%%%%%%%%%%%%%%%%",
"%%%%%%%%%%%%%%%%%%%%%%%%%%%%%%%%%%%%%%%%%%%%%%%%%%%%%%%%%%%%%%%%",
"%%%%%%%%%%%%%%%%                                %%%%%%%%%%%%%%%%",
"%%%%%%%%%%%%%%%%                                %%%%%%%%%%%%%%%%",
"%%%%%%%%%%%%%%%%                                %%%%%%%%%%%%%%%%",
"%%%%%%%%%%%%%%%%                                %%%%%%%%%%%%%%%%",
"%%%%%%%%%%%%    oooooooooooooooooooooooooooooooo    %%%%%%%%%%%%",
"%%%%%%%%%%%%    oooooooooooooooooooooooooooooooo    %%%%%%%%%%%%",
"%%%%%%%%%%%%    oooooooooooooooooooooooooooooooo    %%%%%%%%%%%%",
"%%%%%%%%%%%%    oooooooooooooooooooooooooooooooo    %%%%%%%%%%%%",
"%%%%        oooooooooooooooooooooooooooooooooooooooo        %%%%",
"%%%%        oooooooooooooooooooooooooooooooooooooooo        %%%%",
"%%%%        oooooooooooooooooooooooooooooooooooooooo        %%%%",
"%%%%        oooooooooooooooooooooooooooooooooooooooo        %%%%",
"    XXXX    XXXXooooooooooooooooooooooooooooooooXXXX    XXXX    ",
"    XXXX    XXXXooooooooooooooooooooooooooooooooXXXX    XXXX    ",
"    XXXX    XXXXooooooooooooooooooooooooooooooooXXXX    XXXX    ",
"    XXXX    XXXXooooooooooooooooooooooooooooooooXXXX    XXXX    ",
"    XXXXXXXXXXXXXXXX############XXXXXXXXXXXXXXXXXXXXXXXXXXXX    ",
"    XXXXXXXXXXXXXXXX############XXXXXXXXXXXXXXXXXXXXXXXXXXXX    ",
"    XXXXXXXXXXXXXXXX############XXXXXXXXXXXXXXXXXXXXXXXXXXXX    ",
"    XXXXXXXXXXXXXXXX############XXXXXXXXXXXXXXXXXXXXXXXXXXXX    ",
"    ....XXXXXXXXXXXX############XXXXXXXXXXXXXXXXXXXXXXXX....    ",
"    ....XXXXXXXXXXXX############XXXXXXXXXXXXXXXXXXXXXXXX....    ",
"    ....XXXXXXXXXXXX############XXXXXXXXXXXXXXXXXXXXXXXX....    ",
"    ....XXXXXXXXXXXX############XXXXXXXXXXXXXXXXXXXXXXXX....    ",
"%%%%    ....................................................    ",
"%%%%    ....................................................    ",
"%%%%    ....................................................    ",
"%%%%    ....................................................    ",
"        OOOOOOOOOOOOOOOOOOOO@@@@@@@@@@@@@@@@@@@@............    ",
"        OOOOOOOOOOOOOOOOOOOO@@@@@@@@@@@@@@@@@@@@............    ",
"        OOOOOOOOOOOOOOOOOOOO@@@@@@@@@@@@@@@@@@@@............    ",
"        OOOOOOOOOOOOOOOOOOOO@@@@@@@@@@@@@@@@@@@@............    ",
"    ++++++++++++++++++++++++@@@@@@@@@@@@@@@@@@@@@@@@@@@@OOOO    ",
"    ++++++++++++++++++++++++@@@@@@@@@@@@@@@@@@@@@@@@@@@@OOOO    ",
"    ++++++++++++++++++++++++@@@@@@@@@@@@@@@@@@@@@@@@@@@@OOOO    ",
"    ++++++++++++++++++++++++@@@@@@@@@@@@@@@@@@@@@@@@@@@@OOOO    ",
"    $$$$$$$$        ++++++++++++OOOOOOOOOOOO@@@@@@@@OOOOOOOO    ",
"    $$$$$$$$        ++++++++++++OOOOOOOOOOOO@@@@@@@@OOOOOOOO    ",
"    $$$$$$$$        ++++++++++++OOOOOOOOOOOO@@@@@@@@OOOOOOOO    ",
"    $$$$$$$$        ++++++++++++OOOOOOOOOOOO@@@@@@@@OOOOOOOO    ",
"                ++++++++++++++++OOOOOOOOOOOOOOOOOOOOOOOO    %%%%",
"                ++++++++++++++++OOOOOOOOOOOOOOOOOOOOOOOO    %%%%",
"                ++++++++++++++++OOOOOOOOOOOOOOOOOOOOOOOO    %%%%",
"                ++++++++++++++++OOOOOOOOOOOOOOOOOOOOOOOO    %%%%",
"    OOOOOOOOOOOO++++++++++++OOOOOOOOOOOOOOOO            %%%%%%%%",
"    OOOOOOOOOOOO++++++++++++OOOOOOOOOOOOOOOO            %%%%%%%%",
"    OOOOOOOOOOOO++++++++++++OOOOOOOOOOOOOOOO            %%%%%%%%",
"    OOOOOOOOOOOO++++++++++++OOOOOOOOOOOOOOOO            %%%%%%%%",
"%%%%        XXXXoooooooo    ########    oooooooo    %%%%%%%%%%%%",
"%%%%        XXXXoooooooo    ########    oooooooo    %%%%%%%%%%%%",
"%%%%        XXXXoooooooo    ########    oooooooo    %%%%%%%%%%%%",
"%%%%        XXXXoooooooo    ########    oooooooo    %%%%%%%%%%%%",
"%%%%%%%%    XXXXXXXXXXXX    ++++++++    XXXXXXXX....    %%%%%%%%",
"%%%%%%%%    XXXXXXXXXXXX    ++++++++    XXXXXXXX....    %%%%%%%%",
"%%%%%%%%    XXXXXXXXXXXX    ++++++++    XXXXXXXX....    %%%%%%%%",
"%%%%%%%%    XXXXXXXXXXXX    ++++++++    XXXXXXXX....    %%%%%%%%",
"%%%%    ................                ............    %%%%%%%%",
"%%%%    ................                ............    %%%%%%%%",
"%%%%    ................                ............    %%%%%%%%",
"%%%%    ................                ............    %%%%%%%%"
};
