/* XPM */
static char *player_back[] = {
/* columns rows colors chars-per-pixel */
"64 64 9 1 ",
"  c #141B1B",
". c #2B212A",
"X c #4E484A",
"o c #5F7160",
"O c #D14B34",
"+ c #EF914F",
"@ c #F1C471",
"# c #F2EAF1",
"$ c None",
/* pixels */
"$$$$$$$$$$$$$$$$$$$$$$$$$$$$$$$$$$$$$$$$$$$$$$$$$$$$$$$$$$$$$$$$",
"$$$$$$$$$$$$$$$$$$$$$$$$$$$$$$$$$$$$$$$$$$$$$$$$$$$$$$$$$$$$$$$$",
"$$$$$$$$$$$$$$$$$$$$$$$$$$$$$$$$$$$$$$$$$$$$$$$$$$$$$$$$$$$$$$$$",
"$$$$$$$$$$$$$$$$$$$$$$$$$$$$$$$$$$$$$$$$$$$$$$$$$$$$$$$$$$$$$$$$",
"$$$$$$$$$$$$$$$$                                $$$$$$$$$$$$$$$$",
"$$$$$$$$$$$$$$$$                                $$$$$$$$$$$$$$$$",
"$$$$$$$$$$$$$$$$                                $$$$$$$$$$$$$$$$",
"$$$$$$$$$$$$$$$$                                $$$$$$$$$$$$$$$$",
"$$$$$$$$$$$$    oooooooooooooooooooooooooooooooo    $$$$$$$$$$$$",
"$$$$$$$$$$$$    oooooooooooooooooooooooooooooooo    $$$$$$$$$$$$",
"$$$$$$$$$$$$    oooooooooooooooooooooooooooooooo    $$$$$$$$$$$$",
"$$$$$$$$$$$$    oooooooooooooooooooooooooooooooo    $$$$$$$$$$$$",
"$$$$        oooooooooooooooooooooooooooooooooooooooo        $$$$",
"$$$$        oooooooooooooooooooooooooooooooooooooooo        $$$$",
"$$$$        oooooooooooooooooooooooooooooooooooooooo        $$$$",
"$$$$        oooooooooooooooooooooooooooooooooooooooo        $$$$",
"    XXXX    XXXXooooooooooooooooooooooooooooooooXXXX    XXXX    ",
"    XXXX    XXXXooooooooooooooooooooooooooooooooXXXX    XXXX    ",
"    XXXX    XXXXooooooooooooooooooooooooooooooooXXXX    XXXX    ",
"    XXXX    XXXXooooooooooooooooooooooooooooooooXXXX    XXXX    ",
"    XXXXXXXXXXXXXXXXXXXXXXXXXXXXXXXXXXXXXXXXXXXXXXXXXXXXXXXX    ",
"    XXXXXXXXXXXXXXXXXXXXXXXXXXXXXXXXXXXXXXXXXXXXXXXXXXXXXXXX    ",
"    XXXXXXXXXXXXXXXXXXXXXXXXXXXXXXXXXXXXXXXXXXXXXXXXXXXXXXXX    ",
"    XXXXXXXXXXXXXXXXXXXXXXXXXXXXXXXXXXXXXXXXXXXXXXXXXXXXXXXX    ",
"    ....XXXXXXXXXXXXXXXXXXXXXXXXXXXXXXXXXXXXXXXXXXXXXXXX....    ",
"    ....XXXXXXXXXXXXXXXXXXXXXXXXXXXXXXXXXXXXXXXXXXXXXXXX....    ",
"    ....XXXXXXXXXXXXXXXXXXXXXXXXXXXXXXXXXXXXXXXXXXXXXXXX....    ",
"    ....XXXXXXXXXXXXXXXXXXXXXXXXXXXXXXXXXXXXXXXXXXXXXXXX....    ",
"$$$$    ....................................................    ",
"$$$$    ....................................................    ",
"$$$$    ....................................................    ",
"$$$$    ....................................................    ",
"        ++++++++++++++++++++++++++++++++++++++++++++++++OOOO    ",
"        ++++++++++++++++++++++++++++++++++++++++++++++++OOOO    ",
"        ++++++++++++++++++++++++++++++++++++++++++++++++OOOO    ",
"        ++++++++++++++++++++++++++++++++++++++++++++++++OOOO    ",
"    ++++@@@@++++@@@@++++++++++++++++++++++++++++++++++++OOOO    ",
"    ++++@@@@++++@@@@++++++++++++++++++++++++++++++++++++OOOO    ",
"    ++++@@@@++++@@@@++++++++++++++++++++++++++++++++++++OOOO    ",
"    ++++@@@@++++@@@@++++++++++++++++++++++++++++++++++++OOOO    ",
"    ++++++++++++@@@@++++@@@@++++@@@@++++++++++++++++OOOOOOOO    ",
"    ++++++++++++@@@@++++@@@@++++@@@@++++++++++++++++OOOOOOOO    ",
"    ++++++++++++@@@@++++@@@@++++@@@@++++++++++++++++OOOOOOOO    ",
"    ++++++++++++@@@@++++@@@@++++@@@@++++++++++++++++OOOOOOOO    ",
"$$$$    OOOO++++++++++++++++++++++++++++++++OOOOOOOOOOOO    $$$$",
"$$$$    OOOO++++++++++++++++++++++++++++++++OOOOOOOOOOOO    $$$$",
"$$$$    OOOO++++++++++++++++++++++++++++++++OOOOOOOOOOOO    $$$$",
"$$$$    OOOO++++++++++++++++++++++++++++++++OOOOOOOOOOOO    $$$$",
"$$$$    XXXXOOOOOOOOOOOOOOOOOOOOOOOOOOOOOOOO    XXXXXXXX    $$$$",
"$$$$    XXXXOOOOOOOOOOOOOOOOOOOOOOOOOOOOOOOO    XXXXXXXX    $$$$",
"$$$$    XXXXOOOOOOOOOOOOOOOOOOOOOOOOOOOOOOOO    XXXXXXXX    $$$$",
"$$$$    XXXXOOOOOOOOOOOOOOOOOOOOOOOOOOOOOOOO    XXXXXXXX    $$$$",
"    ########XXXXooooooooooooooooooooooooooooXXXX....########    ",
"    ########XXXXooooooooooooooooooooooooooooXXXX....########    ",
"    ########XXXXooooooooooooooooooooooooooooXXXX....########    ",
"    ########XXXXooooooooooooooooooooooooooooXXXX....########    ",
"    ++++++++XXXXXXXXXXXXXXXXXXXXXXXXXXXXXXXXXXXX....OOOOOOOO    ",
"    ++++++++XXXXXXXXXXXXXXXXXXXXXXXXXXXXXXXXXXXX....OOOOOOOO    ",
"    ++++++++XXXXXXXXXXXXXXXXXXXXXXXXXXXXXXXXXXXX....OOOOOOOO    ",
"    ++++++++XXXXXXXXXXXXXXXXXXXXXXXXXXXXXXXXXXXX....OOOOOOOO    ",
"$$$$        ............                ................    $$$$",
"$$$$        ............                ................    $$$$",
"$$$$        ............                ................    $$$$",
"$$$$        ............                ................    $$$$"
};
