/* XPM */
static char *wall[] = {
/* columns rows colors chars-per-pixel */
"64 64 6 1 ",
"  c #546626",
". c #7A7A3E",
"X c #A8A129",
"o c #F38C4C",
"O c #FFAD5D",
"+ c None",
/* pixels */
"++++++++++++++++++++                        ++++++++++++++++++++",
"++++++++++++++++++++                        ++++++++++++++++++++",
"++++++++++++++++++++                        ++++++++++++++++++++",
"++++++++++++++++++++                        ++++++++++++++++++++",
"++++++++++++        OOOOOOOOOOOOOOOOOOOOOOOO        ++++++++++++",
"++++++++++++        OOOOOOOOOOOOOOOOOOOOOOOO        ++++++++++++",
"++++++++++++        OOOOOOOOOOOOOOOOOOOOOOOO        ++++++++++++",
"++++++++++++        OOOOOOOOOOOOOOOOOOOOOOOO        ++++++++++++",
"++++++++    OOOOOOOOOOOOooooooooooooooooOOOOOOOOOOOO    ++++++++",
"++++++++    OOOOOOOOOOOOooooooooooooooooOOOOOOOOOOOO    ++++++++",
"++++++++    OOOOOOOOOOOOooooooooooooooooOOOOOOOOOOOO    ++++++++",
"++++++++    OOOOOOOOOOOOooooooooooooooooOOOOOOOOOOOO    ++++++++",
"++++++++    OOOOOOOOooooOOOOOOOOOOOOOOOOooooOOOOOOOO    ++++++++",
"++++++++    OOOOOOOOooooOOOOOOOOOOOOOOOOooooOOOOOOOO    ++++++++",
"++++++++    OOOOOOOOooooOOOOOOOOOOOOOOOOooooOOOOOOOO    ++++++++",
"++++++++    OOOOOOOOooooOOOOOOOOOOOOOOOOooooOOOOOOOO    ++++++++",
"++++    OOOOOOOOooooOOOOOOOOooooooooOOOOOOOOooooOOOOOOOO    ++++",
"++++    OOOOOOOOooooOOOOOOOOooooooooOOOOOOOOooooOOOOOOOO    ++++",
"++++    OOOOOOOOooooOOOOOOOOooooooooOOOOOOOOooooOOOOOOOO    ++++",
"++++    OOOOOOOOooooOOOOOOOOooooooooOOOOOOOOooooOOOOOOOO    ++++",
"++++    OOOOOOOOooooOOOOooooOOOOOOOOooooOOOOooooOOOOOOOO    ++++",
"++++    OOOOOOOOooooOOOOooooOOOOOOOOooooOOOOooooOOOOOOOO    ++++",
"++++    OOOOOOOOooooOOOOooooOOOOOOOOooooOOOOooooOOOOOOOO    ++++",
"++++    OOOOOOOOooooOOOOooooOOOOOOOOooooOOOOooooOOOOOOOO    ++++",
"    ....OOOOOOOOooooOOOOOOOOooooooooOOOOOOOOooooOOOOOOOO....    ",
"    ....OOOOOOOOooooOOOOOOOOooooooooOOOOOOOOooooOOOOOOOO....    ",
"    ....OOOOOOOOooooOOOOOOOOooooooooOOOOOOOOooooOOOOOOOO....    ",
"    ....OOOOOOOOooooOOOOOOOOooooooooOOOOOOOOooooOOOOOOOO....    ",
"........ooooOOOOOOOOooooOOOOOOOOOOOOOOOOooooOOOOOOOOoooo........",
"........ooooOOOOOOOOooooOOOOOOOOOOOOOOOOooooOOOOOOOOoooo........",
"........ooooOOOOOOOOooooOOOOOOOOOOOOOOOOooooOOOOOOOOoooo........",
"........ooooOOOOOOOOooooOOOOOOOOOOOOOOOOooooOOOOOOOOoooo........",
"............ooooOOOOOOOOooooooooooooooooOOOOOOOOoooo............",
"............ooooOOOOOOOOooooooooooooooooOOOOOOOOoooo............",
"............ooooOOOOOOOOooooooooooooooooOOOOOOOOoooo............",
"............ooooOOOOOOOOooooooooooooooooOOOOOOOOoooo............",
"....        ....ooooooooOOOOOOOOOOOOOOOOoooooooo....        ....",
"....        ....ooooooooOOOOOOOOOOOOOOOOoooooooo....        ....",
"....        ....ooooooooOOOOOOOOOOOOOOOOoooooooo....        ....",
"....        ....ooooooooOOOOOOOOOOOOOOOOoooooooo....        ....",
"        ................oooooooooooooooo................        ",
"        ................oooooooooooooooo................        ",
"        ................oooooooooooooooo................        ",
"        ................oooooooooooooooo................        ",
"    ....XXXX................................................    ",
"    ....XXXX................................................    ",
"    ....XXXX................................................    ",
"    ....XXXX................................................    ",
"....XXXXXXXXXXXX........XXXXXXXXXXXXXXXX........XXXX....XXXX....",
"....XXXXXXXXXXXX........XXXXXXXXXXXXXXXX........XXXX....XXXX....",
"....XXXXXXXXXXXX........XXXXXXXXXXXXXXXX........XXXX....XXXX....",
"....XXXXXXXXXXXX........XXXXXXXXXXXXXXXX........XXXX....XXXX....",
"....XXXXXXXXXXXX....XXXXXXXXXXXXXXXXXXXXXXXX....XXXX....XXXX....",
"....XXXXXXXXXXXX....XXXXXXXXXXXXXXXXXXXXXXXX....XXXX....XXXX....",
"....XXXXXXXXXXXX....XXXXXXXXXXXXXXXXXXXXXXXX....XXXX....XXXX....",
"....XXXXXXXXXXXX....XXXXXXXXXXXXXXXXXXXXXXXX....XXXX....XXXX....",
"XXXXXXXX....XXXX....XXXXXXXXXXXX....XXXXXXXX....XXXXXXXXXXXXXXXX",
"XXXXXXXX....XXXX....XXXXXXXXXXXX....XXXXXXXX....XXXXXXXXXXXXXXXX",
"XXXXXXXX....XXXX....XXXXXXXXXXXX....XXXXXXXX....XXXXXXXXXXXXXXXX",
"XXXXXXXX....XXXX....XXXXXXXXXXXX....XXXXXXXX....XXXXXXXXXXXXXXXX",
"++++....XXXXXXXX++++++++XXXXXXXX....XXXX++++++++XXXXXXXXXXXX++++",
"++++....XXXXXXXX++++++++XXXXXXXX....XXXX++++++++XXXXXXXXXXXX++++",
"++++....XXXXXXXX++++++++XXXXXXXX....XXXX++++++++XXXXXXXXXXXX++++",
"++++....XXXXXXXX++++++++XXXXXXXX....XXXX++++++++XXXXXXXXXXXX++++"
};
